<svg xmlns="http://www.w3.org/2000/svg" viewBox="0 0 471.71 217.13"><defs><style>.cls-1{fill:#39a8e0;}</style></defs><g id="Layer_2" data-name="Layer 2"><g id="Layer_1-2" data-name="Layer 1"><path class="cls-1" d="M0,209.78l5.47-23.24H9A63.43,63.43,0,0,0,45,197.73q15.47,0,15.47-9.23c0-1.76-1-3.29-3-4.57s-7.12-3.35-15.38-6.2l-3-1q-25.47-8.72-25.47-25,0-15.39,13.76-24.65t38-9.27A119.43,119.43,0,0,1,104,124.16l-5,22H95.53q-13.5-9.48-31.7-9.49-16.23,0-16.24,9.75a4.79,4.79,0,0,0,2.7,4.18q2.68,1.63,12.17,4.19,22.65,6.66,28.16,12.94a20.61,20.61,0,0,1,5.51,13.89Q96.13,196.79,84,207T42.64,217.13Q18.46,217.13,0,209.78Z"/><path class="cls-1" d="M269.21,119.46l-50.17,96H186.41L180,150.59l-32.4,64.83h-33l-9.06-96H137l2.81,66.11,34-66.11h27.31l5.95,66.11,29.65-66.11Z"/><path class="cls-1" d="M302.32,119.46l-22.26,96h-31l22.26-96Z"/><path class="cls-1" d="M465.58,140.82a45.72,45.72,0,0,1-.39,5.73A62.41,62.41,0,0,1,464,153l-14.49,62.47H418.33l11.18-47.94c.75-3.3,1.42-6.47,2-9.5a39.69,39.69,0,0,0,.9-7.33q0-5-2.72-7.27t-9.68-2.3a21.53,21.53,0,0,0-7.52,1.58,87.49,87.49,0,0,0-10.15,4.74l-15.69,68H355.45l11.16-47.94c.64-2.79,1.26-5.81,1.89-9.06a42.38,42.38,0,0,0,.95-7.43c0-3.47-.87-6-2.61-7.56s-5-2.35-9.7-2.35a22.15,22.15,0,0,0-8,1.71,95.36,95.36,0,0,0-9.82,4.61l-15.69,68h-31l22.26-96h31l-2.45,10.59a131.15,131.15,0,0,1,16.93-9.74,38.37,38.37,0,0,1,16.33-3.5q9.46,0,15.95,4.23a22.13,22.13,0,0,1,9,12.43A126.67,126.67,0,0,1,422.13,121a41.64,41.64,0,0,1,17.5-4.19q12.63,0,19.29,6.24T465.58,140.82Z"/><rect class="cls-1" x="315.1" y="55.09" width="85.33" height="28.44" transform="matrix(0.87, -0.5, 0.5, 0.87, 13.28, 188.17)"/><rect class="cls-1" x="403.05" y="26.65" width="28.44" height="85.33" transform="translate(148.61 396.02) rotate(-60)"/><rect class="cls-1" x="283.87" y="26.65" width="28.44" height="85.33" transform="translate(89.02 292.81) rotate(-60)"/><circle class="cls-1" cx="444.63" cy="27.08" r="27.08"/></g></g></svg>